<svg id="SvgjsSvg1021" width="288" height="288" xmlns="http://www.w3.org/2000/svg" version="1.1" xmlns:xlink="http://www.w3.org/1999/xlink" xmlns:svgjs="http://svgjs.com/svgjs"><defs id="SvgjsDefs1022"></defs><g id="SvgjsG1023"><svg xmlns="http://www.w3.org/2000/svg" enable-background="new 0 0 45.959 45.959" viewBox="0 0 45.959 45.959" width="288" height="288"><path d="M5.392.492C2.268.492 0 2.647 0 5.614c0 2.966 2.223 5.119 5.284 5.119 1.588 0 2.956-.515 3.957-1.489.96-.935 1.489-2.224 1.488-3.653C10.659 2.589 8.464.492 5.392.492zM7.847 7.811C7.227 8.414 6.34 8.733 5.284 8.733 3.351 8.733 2 7.451 2 5.614c0-1.867 1.363-3.122 3.392-3.122 1.983 0 3.293 1.235 3.338 3.123C8.729 6.477 8.416 7.256 7.847 7.811zM.959 45.467h8.988V12.422H.959V45.467zM2.959 14.422h4.988v29.044H2.959V14.422zM33.648 12.422c-4.168 0-6.72 1.439-8.198 2.792l-.281-2.792H15v33.044h9.959V28.099c0-.748.303-2.301.493-2.711 1.203-2.591 2.826-2.591 5.284-2.591 2.831 0 5.223 2.655 5.223 5.797v16.874h10v-18.67C45.959 16.92 39.577 12.422 33.648 12.422zM43.959 43.467h-6V28.593c0-4.227-3.308-7.797-7.223-7.797-2.512 0-5.358 0-7.099 3.75-.359.775-.679 2.632-.679 3.553v15.368H17V14.422h6.36l.408 4.044h1.639l.293-.473c.667-1.074 2.776-3.572 7.948-3.572 4.966 0 10.311 3.872 10.311 12.374V43.467z" fill="#ffffff" class="color000 svgShape"></path></svg></g></svg>