<svg id="SvgjsSvg1001" width="288" height="288" xmlns="http://www.w3.org/2000/svg" version="1.1" xmlns:xlink="http://www.w3.org/1999/xlink" xmlns:svgjs="http://svgjs.com/svgjs"><defs id="SvgjsDefs1002"></defs><g id="SvgjsG1008"><svg xmlns="http://www.w3.org/2000/svg" enable-background="new 0 0 207.628 207.628" viewBox="0 0 207.628 207.628" width="288" height="288"><circle cx="103.814" cy="103.814" r="45.868" fill="#ffffff" class="color000 svgShape"></circle><path d="M103.814 157.183c-29.427 0-53.368-23.941-53.368-53.368s23.941-53.368 53.368-53.368 53.368 23.941 53.368 53.368S133.241 157.183 103.814 157.183zM103.814 65.446c-21.156 0-38.368 17.212-38.368 38.368s17.212 38.368 38.368 38.368 38.368-17.212 38.368-38.368S124.97 65.446 103.814 65.446zM103.814 39.385c-4.142 0-7.5-3.358-7.5-7.5V7.5c0-4.142 3.358-7.5 7.5-7.5s7.5 3.358 7.5 7.5v24.385C111.314 36.027 107.956 39.385 103.814 39.385zM103.814 207.628c-4.142 0-7.5-3.358-7.5-7.5v-24.385c0-4.142 3.358-7.5 7.5-7.5s7.5 3.358 7.5 7.5v24.385C111.314 204.271 107.956 207.628 103.814 207.628zM200.128 111.314h-24.385c-4.142 0-7.5-3.358-7.5-7.5s3.358-7.5 7.5-7.5h24.385c4.142 0 7.5 3.358 7.5 7.5S204.271 111.314 200.128 111.314zM31.885 111.314H7.5c-4.142 0-7.5-3.358-7.5-7.5s3.358-7.5 7.5-7.5h24.385c4.142 0 7.5 3.358 7.5 7.5S36.027 111.314 31.885 111.314zM154.676 60.452c-1.919 0-3.839-.732-5.303-2.197-2.929-2.929-2.929-7.678 0-10.606l17.243-17.242c2.929-2.929 7.678-2.93 10.606 0 2.929 2.929 2.929 7.678 0 10.606l-17.243 17.242C158.515 59.72 156.595 60.452 154.676 60.452zM35.709 179.419c-1.919 0-3.839-.732-5.303-2.197-2.929-2.929-2.929-7.678 0-10.606l17.243-17.243c2.929-2.929 7.678-2.929 10.606 0 2.929 2.929 2.929 7.678 0 10.606l-17.243 17.243C39.548 178.687 37.629 179.419 35.709 179.419zM171.918 179.419c-1.919 0-3.839-.732-5.303-2.197l-17.243-17.243c-2.929-2.929-2.929-7.678 0-10.606 2.929-2.929 7.678-2.929 10.606 0l17.243 17.243c2.929 2.929 2.929 7.678 0 10.606C175.757 178.687 173.838 179.419 171.918 179.419zM52.952 60.452c-1.919 0-3.839-.732-5.303-2.197L30.406 41.013c-2.929-2.929-2.929-7.677 0-10.606 2.929-2.929 7.678-2.93 10.606 0l17.243 17.242c2.929 2.929 2.929 7.677 0 10.606C56.791 59.72 54.872 60.452 52.952 60.452z" fill="#ffffff" class="color000 svgShape"></path></svg></g></svg>